<svg version="1.1" id="Layer_1" xmlns="http://www.w3.org/2000/svg" xmlns:xlink="http://www.w3.org/1999/xlink" x="0px" y="0px"
	 width="100%" viewBox="0 0 1200 1200" enable-background="new 0 0 1200 1200" xml:space="preserve">
<path fill="#9F0101" opacity="1.000000" stroke="none" 
	d="
M1.000000,583.000000 
	C1.000000,389.016357 1.000000,195.032730 1.000000,1.024543 
	C400.949921,1.024543 800.899841,1.024543 1200.924805,1.024543 
	C1200.924805,400.916168 1200.924805,800.832336 1200.924805,1200.874268 
	C801.117615,1200.874268 401.235168,1200.874268 1.000000,1200.874268 
	C1.000000,997.302551 1.000000,793.604858 1.466387,589.503052 
	C13.051634,589.098877 24.170494,589.098877 35.744568,589.098877 
	C35.744568,603.137329 35.744568,616.674744 35.744568,630.592651 
	C30.928141,630.592651 26.316044,630.592651 21.731337,630.592651 
	C21.731337,632.885803 21.731337,634.798218 21.731337,637.070923 
	C26.915812,637.070923 31.794851,637.070923 35.221264,637.070923 
	C39.681000,665.118347 42.649940,692.841614 48.637768,719.896851 
	C76.072357,843.856445 138.194321,947.407654 235.365677,1029.166504 
	C327.336945,1106.549927 433.945099,1149.266479 553.704590,1158.760376 
	C601.247925,1162.529419 648.580627,1159.880981 695.527161,1151.135254 
	C799.156799,1131.830078 890.752380,1087.541748 968.793213,1016.755432 
	C1072.150024,923.006592 1132.322632,806.295166 1150.294922,667.844360 
	C1150.577515,665.666870 1152.523438,663.220032 1154.386475,661.823975 
	C1159.960327,657.646973 1166.204712,654.330750 1171.594238,649.949097 
	C1182.316650,641.232178 1183.817383,629.590332 1179.455444,617.367859 
	C1175.391602,605.981018 1167.409912,598.483398 1154.320190,597.669189 
	C1154.252808,596.227600 1154.136230,594.756287 1154.122437,593.283997 
	C1153.849121,564.240234 1151.161987,535.418762 1146.181274,506.807922 
	C1127.732544,400.835510 1082.886475,307.477356 1011.096558,227.447922 
	C877.938965,79.007286 676.420593,11.655700 481.912018,53.593082 
	C304.291107,91.889374 174.336426,194.161560 92.186508,356.291077 
	C64.205246,411.514343 47.540768,470.477448 40.018158,531.955139 
	C39.647354,534.985474 38.541523,535.896118 35.633915,535.770020 
	C31.033743,535.570557 26.418585,535.716797 21.668285,535.716797 
	C21.668285,538.062317 21.668285,539.815369 21.668285,542.054199 
	C27.446178,542.054199 32.990700,542.054199 38.504070,542.054199 
	C37.526352,555.938477 36.582771,569.338074 35.620712,583.000000 
	C23.942364,583.000000 12.471182,583.000000 1.000000,583.000000 
z"/>
<path fill="#F9F6EA" opacity="1.000000" stroke="none" 
	d="
M1.000000,583.428467 
	C12.471182,583.000000 23.942364,583.000000 35.620712,583.000000 
	C36.582771,569.338074 37.526352,555.938477 38.504070,542.054199 
	C32.990700,542.054199 27.446178,542.054199 21.668285,542.054199 
	C21.668285,539.815369 21.668285,538.062317 21.668285,535.716797 
	C26.418585,535.716797 31.033743,535.570557 35.633915,535.770020 
	C38.541523,535.896118 39.647354,534.985474 40.018158,531.955139 
	C47.540768,470.477448 64.205246,411.514343 92.186508,356.291077 
	C174.336426,194.161560 304.291107,91.889374 481.912018,53.593082 
	C676.420593,11.655700 877.938965,79.007286 1011.096558,227.447922 
	C1082.886475,307.477356 1127.732544,400.835510 1146.181274,506.807922 
	C1151.161987,535.418762 1153.849121,564.240234 1154.122437,593.283997 
	C1154.136230,594.756287 1154.252808,596.227600 1154.320190,597.669189 
	C1167.409912,598.483398 1175.391602,605.981018 1179.455444,617.367859 
	C1183.817383,629.590332 1182.316650,641.232178 1171.594238,649.949097 
	C1166.204712,654.330750 1159.960327,657.646973 1154.386475,661.823975 
	C1152.523438,663.220032 1150.577515,665.666870 1150.294922,667.844360 
	C1132.322632,806.295166 1072.150024,923.006592 968.793213,1016.755432 
	C890.752380,1087.541748 799.156799,1131.830078 695.527161,1151.135254 
	C648.580627,1159.880981 601.247925,1162.529419 553.704590,1158.760376 
	C433.945099,1149.266479 327.336945,1106.549927 235.365677,1029.166504 
	C138.194321,947.407654 76.072357,843.856445 48.637768,719.896851 
	C42.649940,692.841614 39.681000,665.118347 35.221264,637.070923 
	C31.794851,637.070923 26.915812,637.070923 21.731337,637.070923 
	C21.731337,634.798218 21.731337,632.885803 21.731337,630.592651 
	C26.316044,630.592651 30.928141,630.592651 35.744568,630.592651 
	C35.744568,616.674744 35.744568,603.137329 35.744568,589.098877 
	C24.170494,589.098877 13.051634,589.098877 1.466387,589.049438 
	C1.000000,587.285645 1.000000,585.571289 1.000000,583.428467 
M899.233887,806.990784 
	C852.491882,836.570679 816.316406,876.503967 786.431946,922.513123 
	C781.459717,930.168274 777.415466,938.442749 776.682251,947.851868 
	C775.574768,962.063293 782.957031,970.569702 797.045105,969.762451 
	C804.175049,969.353943 811.571411,967.575928 818.148621,964.775879 
	C832.541443,958.648499 842.693115,947.289551 851.218262,934.534790 
	C877.072998,895.852722 889.654175,851.996582 900.785828,807.062805 
	C900.742065,806.812256 900.698303,806.561707 900.654541,806.311157 
	C900.414124,806.517273 900.173706,806.723328 899.233887,806.990784 
M918.941772,689.440247 
	C903.417480,705.422119 885.625977,718.037170 864.487793,725.473633 
	C848.640930,731.048645 832.328064,733.404724 815.936401,728.591614 
	C785.649170,719.698364 762.020813,689.852539 759.002380,657.578491 
	C756.387390,629.618530 759.473267,602.002075 764.641602,574.612000 
	C771.374695,538.929077 783.989258,505.252716 800.318481,472.859406 
	C806.726013,460.148285 815.978516,450.670013 828.508423,444.234619 
	C839.729187,438.471619 851.025940,437.739075 862.378052,443.963593 
	C869.069153,447.632446 872.426392,453.285339 873.065979,460.843475 
	C873.962769,471.440460 869.909790,480.713348 865.685364,489.973511 
	C861.896912,498.278168 857.102661,506.276093 854.479492,514.932800 
	C845.214478,545.508545 837.260742,576.447510 833.537903,608.278381 
	C831.892761,622.344055 830.526367,636.487061 833.901672,650.528259 
	C838.034729,667.720947 850.684937,676.349304 868.230408,674.383850 
	C882.715759,672.761292 894.334229,665.897644 903.977844,655.378235 
	C918.309937,639.744568 927.552795,621.066406 933.922302,601.187866 
	C942.588623,574.141052 949.934143,546.673340 958.040833,519.444092 
	C963.060181,502.584930 967.380981,485.406860 973.926270,469.140839 
	C982.229614,448.505585 1000.906738,440.109344 1022.517334,445.120422 
	C1033.611084,447.692871 1038.706909,453.950958 1037.385864,465.171204 
	C1035.480713,481.352478 1033.592896,497.602386 1030.340820,513.546265 
	C1019.738770,565.524658 1008.471375,617.367065 997.585815,669.288086 
	C995.627075,678.630737 994.265686,688.098694 992.439636,698.594116 
	C994.771423,696.951050 996.107422,696.023010 997.429871,695.075867 
	C1044.257202,661.536743 1091.619507,628.826233 1142.697510,601.927246 
	C1145.454834,600.475220 1145.893188,598.690857 1145.848877,595.989929 
	C1145.210815,557.068909 1141.132568,518.542419 1132.378540,480.584778 
	C1104.635620,360.291534 1044.163208,259.597168 949.816284,179.988556 
	C857.161743,101.807884 749.634888,59.418877 628.742371,51.220161 
	C575.879211,47.635078 523.497131,51.981800 471.934967,64.139618 
	C348.217163,93.310989 245.875824,157.077148 165.823944,255.843948 
	C107.580910,327.703339 70.555511,409.617401 53.368599,500.478821 
	C51.186047,512.017151 49.655121,523.678772 47.723171,535.910950 
	C92.444954,535.910950 136.343063,535.910950 180.257263,535.910950 
	C180.257263,538.188293 180.257263,539.940796 180.257263,542.174988 
	C135.742996,542.174988 91.523819,542.174988 46.977348,542.174988 
	C46.052605,555.986145 45.158825,569.334900 44.230515,583.199402 
	C90.133430,583.199402 135.203598,583.199402 180.206940,583.199402 
	C180.206940,585.423462 180.206940,587.160889 180.206940,589.297119 
	C134.762695,589.297119 89.663437,589.297119 44.885376,589.297119 
	C44.885376,603.233521 44.885376,616.754822 44.885376,630.554321 
	C90.493073,630.554321 135.286804,630.554321 180.127380,630.554321 
	C180.127380,632.868042 180.127380,634.862915 180.127380,637.048706 
	C134.961411,637.048706 90.225830,637.048706 45.468750,637.048706 
	C64.470612,937.413818 326.457001,1176.261108 641.497742,1149.625244 
	C929.547302,1125.271362 1118.551025,892.921326 1140.676514,669.873962 
	C1139.650146,670.428833 1138.783203,670.854675 1137.957886,671.349915 
	C1089.323608,700.530640 1040.792114,729.885559 991.956360,758.724976 
	C984.458130,763.152954 981.339233,768.554626 979.821533,776.845215 
	C970.780518,826.233276 956.789856,874.165955 935.978149,919.979065 
	C920.533264,953.978027 898.687683,982.353455 865.808716,1001.439819 
	C829.738892,1022.378479 791.499084,1028.965454 750.961121,1018.887939 
	C727.950928,1013.167725 714.111755,998.050354 710.072205,974.347717 
	C706.139465,951.271362 712.962952,930.397339 723.952209,910.794067 
	C737.307068,886.970825 755.648193,866.811157 773.875305,846.691650 
	C797.521851,820.589966 825.447754,799.523865 854.246155,779.579163 
	C872.165100,767.169189 890.417053,755.240723 908.395020,742.914612 
	C910.414612,741.529968 912.288269,739.198120 913.103149,736.905212 
	C920.725830,715.458618 928.108765,693.926758 935.534302,672.410217 
	C935.960327,671.175659 936.151855,669.860168 936.452515,668.582336 
	C936.221802,668.533508 935.991150,668.484680 935.760437,668.435852 
	C930.320557,675.269348 924.880676,682.102783 918.941772,689.440247 
M936.508179,666.352112 
	C936.361145,666.880920 936.214050,667.409729 936.066895,667.938538 
	C936.380676,667.604492 936.694458,667.270447 936.508179,666.352112 
z"/>
<path fill="#9F0101" opacity="1.000000" stroke="none" 
	d="
M919.191284,689.188232 
	C924.880676,682.102783 930.320557,675.269348 935.760437,668.435852 
	C935.991150,668.484680 936.221802,668.533508 936.452515,668.582336 
	C936.151855,669.860168 935.960327,671.175659 935.534302,672.410217 
	C928.108765,693.926758 920.725830,715.458618 913.103149,736.905212 
	C912.288269,739.198120 910.414612,741.529968 908.395020,742.914612 
	C890.417053,755.240723 872.165100,767.169189 854.246155,779.579163 
	C825.447754,799.523865 797.521851,820.589966 773.875305,846.691650 
	C755.648193,866.811157 737.307068,886.970825 723.952209,910.794067 
	C712.962952,930.397339 706.139465,951.271362 710.072205,974.347717 
	C714.111755,998.050354 727.950928,1013.167725 750.961121,1018.887939 
	C791.499084,1028.965454 829.738892,1022.378479 865.808716,1001.439819 
	C898.687683,982.353455 920.533264,953.978027 935.978149,919.979065 
	C956.789856,874.165955 970.780518,826.233276 979.821533,776.845215 
	C981.339233,768.554626 984.458130,763.152954 991.956360,758.724976 
	C1040.792114,729.885559 1089.323608,700.530640 1137.957886,671.349915 
	C1138.783203,670.854675 1139.650146,670.428833 1140.676514,669.873962 
	C1118.551025,892.921326 929.547302,1125.271362 641.497742,1149.625244 
	C326.457001,1176.261108 64.470612,937.413818 45.468750,637.048706 
	C90.225830,637.048706 134.961411,637.048706 180.127380,637.048706 
	C180.127380,634.862915 180.127380,632.868042 180.127380,630.554321 
	C135.286804,630.554321 90.493073,630.554321 44.885376,630.554321 
	C44.885376,616.754822 44.885376,603.233521 44.885376,589.297119 
	C89.663437,589.297119 134.762695,589.297119 180.206940,589.297119 
	C180.206940,587.160889 180.206940,585.423462 180.206940,583.199402 
	C135.203598,583.199402 90.133430,583.199402 44.230515,583.199402 
	C45.158825,569.334900 46.052605,555.986145 46.977348,542.174988 
	C91.523819,542.174988 135.742996,542.174988 180.257263,542.174988 
	C180.257263,539.940796 180.257263,538.188293 180.257263,535.910950 
	C136.343063,535.910950 92.444954,535.910950 47.723171,535.910950 
	C49.655121,523.678772 51.186047,512.017151 53.368599,500.478821 
	C70.555511,409.617401 107.580910,327.703339 165.823944,255.843948 
	C245.875824,157.077148 348.217163,93.310989 471.934967,64.139618 
	C523.497131,51.981800 575.879211,47.635078 628.742371,51.220161 
	C749.634888,59.418877 857.161743,101.807884 949.816284,179.988556 
	C1044.163208,259.597168 1104.635620,360.291534 1132.378540,480.584778 
	C1141.132568,518.542419 1145.210815,557.068909 1145.848877,595.989929 
	C1145.893188,598.690857 1145.454834,600.475220 1142.697510,601.927246 
	C1091.619507,628.826233 1044.257202,661.536743 997.429871,695.075867 
	C996.107422,696.023010 994.771423,696.951050 992.439636,698.594116 
	C994.265686,688.098694 995.627075,678.630737 997.585815,669.288086 
	C1008.471375,617.367065 1019.738770,565.524658 1030.340820,513.546265 
	C1033.592896,497.602386 1035.480713,481.352478 1037.385864,465.171204 
	C1038.706909,453.950958 1033.611084,447.692871 1022.517334,445.120422 
	C1000.906738,440.109344 982.229614,448.505585 973.926270,469.140839 
	C967.380981,485.406860 963.060181,502.584930 958.040833,519.444092 
	C949.934143,546.673340 942.588623,574.141052 933.922302,601.187866 
	C927.552795,621.066406 918.309937,639.744568 903.977844,655.378235 
	C894.334229,665.897644 882.715759,672.761292 868.230408,674.383850 
	C850.684937,676.349304 838.034729,667.720947 833.901672,650.528259 
	C830.526367,636.487061 831.892761,622.344055 833.537903,608.278381 
	C837.260742,576.447510 845.214478,545.508545 854.479492,514.932800 
	C857.102661,506.276093 861.896912,498.278168 865.685364,489.973511 
	C869.909790,480.713348 873.962769,471.440460 873.065979,460.843475 
	C872.426392,453.285339 869.069153,447.632446 862.378052,443.963593 
	C851.025940,437.739075 839.729187,438.471619 828.508423,444.234619 
	C815.978516,450.670013 806.726013,460.148285 800.318481,472.859406 
	C783.989258,505.252716 771.374695,538.929077 764.641602,574.612000 
	C759.473267,602.002075 756.387390,629.618530 759.002380,657.578491 
	C762.020813,689.852539 785.649170,719.698364 815.936401,728.591614 
	C832.328064,733.404724 848.640930,731.048645 864.487793,725.473633 
	C885.625977,718.037170 903.417480,705.422119 919.191284,689.188232 
M450.832123,604.837769 
	C450.832123,604.837769 450.521790,604.559326 450.575165,603.771912 
	C454.199005,588.397034 458.383881,573.128540 461.325439,557.624207 
	C466.811127,528.710266 471.832458,499.700287 476.452423,470.635773 
	C477.579651,463.544250 477.301941,455.932953 476.088715,448.830780 
	C473.914429,436.102417 456.477783,427.192749 442.066101,428.414856 
	C429.864655,429.449524 419.420105,434.769592 409.803558,441.859375 
	C385.714905,459.618652 367.216888,482.479858 351.160889,507.399963 
	C329.201904,541.481934 312.271179,578.127625 296.942810,615.556763 
	C296.164886,617.456421 295.255951,619.302429 294.408020,621.173340 
	C293.773956,620.031006 293.644318,619.092041 293.792633,618.199341 
	C299.354767,584.725952 304.277283,551.127075 310.770996,517.834778 
	C314.803223,497.162292 321.090851,476.919769 326.608948,456.550049 
	C331.575897,438.214783 319.551392,424.358093 300.519073,426.483551 
	C288.085052,427.872192 279.090179,434.460449 274.259552,445.389404 
	C268.977234,457.340210 264.829742,469.864685 261.072327,482.404205 
	C248.768982,523.463928 240.018097,565.321167 236.327225,608.033813 
	C234.236298,632.231079 233.508575,656.588135 233.288666,680.883484 
	C233.206146,690.000610 235.605270,699.338806 238.073883,708.243347 
	C245.502441,735.038757 283.204041,738.454163 296.730469,719.252258 
	C304.842957,707.735901 313.381042,696.279785 319.678650,683.765320 
	C349.319214,624.864258 381.531616,567.508911 418.893829,513.120422 
	C420.041718,511.449524 421.200897,509.786377 422.354797,508.119629 
	C422.843475,509.480530 422.641663,510.434052 422.426392,511.384521 
	C413.431366,551.109802 404.059601,590.754944 395.597656,630.593384 
	C391.378296,650.457886 388.421661,670.715271 390.196320,691.117920 
	C390.888000,699.070190 392.812073,707.367004 396.211517,714.541870 
	C404.340912,731.700012 427.851807,736.716248 442.057770,724.331787 
	C448.045776,719.111633 453.373230,712.361389 456.938812,705.269836 
	C471.714172,675.883179 485.344727,645.921753 500.073242,616.510620 
	C516.612976,583.482849 534.155396,550.969543 556.649719,521.473450 
	C561.731812,514.809509 567.594971,508.741241 573.098572,502.398743 
	C573.494446,502.672668 573.890259,502.946564 574.286133,503.220459 
	C573.733459,505.262299 573.203186,507.310455 572.624817,509.345032 
	C562.583252,544.669128 552.134521,579.884277 542.648438,615.356873 
	C537.415955,634.923157 532.700256,654.696960 533.847961,675.367676 
	C535.336914,702.184448 552.145386,724.044189 577.363525,730.519958 
	C589.133911,733.542542 601.109497,733.558960 613.059998,731.483704 
	C633.838989,727.875488 652.656799,719.186340 670.826050,708.898499 
	C699.650085,692.577759 723.809448,670.967712 743.541016,644.396790 
	C748.072388,638.294800 748.150330,633.180908 742.905396,627.798767 
	C738.419373,623.195557 733.441284,618.837830 728.008850,615.448853 
	C720.813232,610.959961 713.172791,612.513062 707.021729,618.359863 
	C700.741150,624.329895 694.731323,630.643738 688.022278,636.092163 
	C672.148499,648.983276 656.160278,661.759705 639.751343,673.953979 
	C631.941772,679.757568 622.821045,682.824951 612.590393,682.032227 
	C601.322205,681.159180 594.028015,674.595886 593.039856,663.280457 
	C592.808594,660.631775 592.817017,657.950500 592.888916,655.288879 
	C593.501770,632.608948 599.089355,610.858093 605.705200,589.370850 
	C614.064026,562.222717 623.256165,535.326782 631.330322,508.097168 
	C636.010864,492.312531 639.491699,476.138641 637.241699,459.367859 
	C635.274109,444.702271 628.136536,433.959778 613.606567,429.681091 
	C601.036194,425.979431 588.318542,426.647095 575.794861,430.821686 
	C556.839783,437.140045 542.174988,449.477081 529.197388,464.057343 
	C504.704193,491.575226 487.475403,523.641357 472.132446,556.788513 
	C464.755981,572.724670 458.112427,589.000183 450.832123,604.837769 
M180.537781,492.988647 
	C180.537781,491.396881 180.537781,489.805115 180.537781,488.233826 
	C143.508698,488.233826 107.118530,488.233826 70.516541,488.233826 
	C70.516541,490.255463 70.516541,492.026855 70.516541,494.040802 
	C71.911026,494.132538 73.213966,494.292603 74.516975,494.293152 
	C108.475060,494.306854 142.433151,494.309845 176.391235,494.281372 
	C177.683929,494.280304 178.976364,493.947571 180.537781,492.988647 
M67.793961,684.002319 
	C105.219398,684.002319 142.644836,684.002319 180.291077,684.002319 
	C180.291077,681.820496 180.291077,680.083435 180.291077,678.264404 
	C141.504044,678.264404 102.975945,678.264404 63.511440,678.264404 
	C65.307663,680.374695 62.011368,684.004272 67.793961,684.002319 
z"/>
<path fill="#9F0202" opacity="1.000000" stroke="none" 
	d="
M900.439575,807.459595 
	C889.654175,851.996582 877.072998,895.852722 851.218262,934.534790 
	C842.693115,947.289551 832.541443,958.648499 818.148621,964.775879 
	C811.571411,967.575928 804.175049,969.353943 797.045105,969.762451 
	C782.957031,970.569702 775.574768,962.063293 776.682251,947.851868 
	C777.415466,938.442749 781.459717,930.168274 786.431946,922.513123 
	C816.316406,876.503967 852.491882,836.570679 899.709045,807.093689 
	C900.184204,807.196594 900.439575,807.459595 900.439575,807.459595 
z"/>
<path fill="#9F0101" opacity="1.000000" stroke="none" 
	d="
M936.758179,666.644287 
	C936.694458,667.270447 936.380676,667.604492 936.066895,667.938538 
	C936.214050,667.409729 936.361145,666.880920 936.758179,666.644287 
z"/>
<path fill="#9F0202" opacity="1.000000" stroke="none" 
	d="
M900.058716,807.062988 
	C900.173706,806.723328 900.414124,806.517273 900.654541,806.311157 
	C900.698303,806.561707 900.742065,806.812256 900.612671,807.261230 
	C900.439575,807.459595 900.184204,807.196594 900.058716,807.062988 
z"/>
<path fill="#FAF8EC" opacity="1.000000" stroke="none" 
	d="
M451.137024,605.122009 
	C458.112427,589.000183 464.755981,572.724670 472.132446,556.788513 
	C487.475403,523.641357 504.704193,491.575226 529.197388,464.057343 
	C542.174988,449.477081 556.839783,437.140045 575.794861,430.821686 
	C588.318542,426.647095 601.036194,425.979431 613.606567,429.681091 
	C628.136536,433.959778 635.274109,444.702271 637.241699,459.367859 
	C639.491699,476.138641 636.010864,492.312531 631.330322,508.097168 
	C623.256165,535.326782 614.064026,562.222717 605.705200,589.370850 
	C599.089355,610.858093 593.501770,632.608948 592.888916,655.288879 
	C592.817017,657.950500 592.808594,660.631775 593.039856,663.280457 
	C594.028015,674.595886 601.322205,681.159180 612.590393,682.032227 
	C622.821045,682.824951 631.941772,679.757568 639.751343,673.953979 
	C656.160278,661.759705 672.148499,648.983276 688.022278,636.092163 
	C694.731323,630.643738 700.741150,624.329895 707.021729,618.359863 
	C713.172791,612.513062 720.813232,610.959961 728.008850,615.448853 
	C733.441284,618.837830 738.419373,623.195557 742.905396,627.798767 
	C748.150330,633.180908 748.072388,638.294800 743.541016,644.396790 
	C723.809448,670.967712 699.650085,692.577759 670.826050,708.898499 
	C652.656799,719.186340 633.838989,727.875488 613.059998,731.483704 
	C601.109497,733.558960 589.133911,733.542542 577.363525,730.519958 
	C552.145386,724.044189 535.336914,702.184448 533.847961,675.367676 
	C532.700256,654.696960 537.415955,634.923157 542.648438,615.356873 
	C552.134521,579.884277 562.583252,544.669128 572.624817,509.345032 
	C573.203186,507.310455 573.733459,505.262299 574.286133,503.220459 
	C573.890259,502.946564 573.494446,502.672668 573.098572,502.398743 
	C567.594971,508.741241 561.731812,514.809509 556.649719,521.473450 
	C534.155396,550.969543 516.612976,583.482849 500.073242,616.510620 
	C485.344727,645.921753 471.714172,675.883179 456.938812,705.269836 
	C453.373230,712.361389 448.045776,719.111633 442.057770,724.331787 
	C427.851807,736.716248 404.340912,731.700012 396.211517,714.541870 
	C392.812073,707.367004 390.888000,699.070190 390.196320,691.117920 
	C388.421661,670.715271 391.378296,650.457886 395.597656,630.593384 
	C404.059601,590.754944 413.431366,551.109802 422.426392,511.384521 
	C422.641663,510.434052 422.843475,509.480530 422.354797,508.119629 
	C421.200897,509.786377 420.041718,511.449524 418.893829,513.120422 
	C381.531616,567.508911 349.319214,624.864258 319.678650,683.765320 
	C313.381042,696.279785 304.842957,707.735901 296.730469,719.252258 
	C283.204041,738.454163 245.502441,735.038757 238.073883,708.243347 
	C235.605270,699.338806 233.206146,690.000610 233.288666,680.883484 
	C233.508575,656.588135 234.236298,632.231079 236.327225,608.033813 
	C240.018097,565.321167 248.768982,523.463928 261.072327,482.404205 
	C264.829742,469.864685 268.977234,457.340210 274.259552,445.389404 
	C279.090179,434.460449 288.085052,427.872192 300.519073,426.483551 
	C319.551392,424.358093 331.575897,438.214783 326.608948,456.550049 
	C321.090851,476.919769 314.803223,497.162292 310.770996,517.834778 
	C304.277283,551.127075 299.354767,584.725952 293.792633,618.199341 
	C293.644318,619.092041 293.773956,620.031006 294.408020,621.173340 
	C295.255951,619.302429 296.164886,617.456421 296.942810,615.556763 
	C312.271179,578.127625 329.201904,541.481934 351.160889,507.399963 
	C367.216888,482.479858 385.714905,459.618652 409.803558,441.859375 
	C419.420105,434.769592 429.864655,429.449524 442.066101,428.414856 
	C456.477783,427.192749 473.914429,436.102417 476.088715,448.830780 
	C477.301941,455.932953 477.579651,463.544250 476.452423,470.635773 
	C471.832458,499.700287 466.811127,528.710266 461.325439,557.624207 
	C458.383881,573.128540 454.199005,588.397034 450.364624,604.436646 
	C450.154083,605.686279 450.154083,606.271301 450.154083,606.856262 
	C450.351532,606.874695 450.548981,606.893127 450.746429,606.911621 
	C450.876617,606.315063 451.006836,605.718567 451.137024,605.122009 
M293.456665,623.413635 
	C293.591309,623.135925 293.758545,622.867310 293.840820,622.574890 
	C293.865601,622.486755 293.654114,622.332092 293.550842,622.207947 
	C293.434174,622.472900 293.317535,622.737854 293.456665,623.413635 
z"/>
<path fill="#F6EEE3" opacity="1.000000" stroke="none" 
	d="
M180.403351,493.379028 
	C178.976364,493.947571 177.683929,494.280304 176.391235,494.281372 
	C142.433151,494.309845 108.475060,494.306854 74.516975,494.293152 
	C73.213966,494.292603 71.911026,494.132538 70.516541,494.040802 
	C70.516541,492.026855 70.516541,490.255463 70.516541,488.233826 
	C107.118530,488.233826 143.508698,488.233826 180.537781,488.233826 
	C180.537781,489.805115 180.537781,491.396881 180.403351,493.379028 
z"/>
<path fill="#F9F7EB" opacity="1.000000" stroke="none" 
	d="
M67.326591,684.001648 
	C62.011368,684.004272 65.307663,680.374695 63.511440,678.264404 
	C102.975945,678.264404 141.504044,678.264404 180.291077,678.264404 
	C180.291077,680.083435 180.291077,681.820496 180.291077,684.002319 
	C142.644836,684.002319 105.219398,684.002319 67.326591,684.001648 
z"/>
<path fill="#9F0101" opacity="1.000000" stroke="none" 
	d="
M450.984558,604.979858 
	C451.006836,605.718567 450.876617,606.315063 450.746429,606.911621 
	C450.548981,606.893127 450.351532,606.874695 450.154083,606.856262 
	C450.154083,606.271301 450.154083,605.686279 450.337952,604.830322 
	C450.521790,604.559326 450.832123,604.837769 450.984558,604.979858 
z"/>
<path fill="#9F0101" opacity="1.000000" stroke="none" 
	d="
M293.328766,623.208252 
	C293.317535,622.737854 293.434174,622.472900 293.550842,622.207947 
	C293.654114,622.332092 293.865601,622.486755 293.840820,622.574890 
	C293.758545,622.867310 293.591309,623.135925 293.328766,623.208252 
z"/>
</svg>